G04 #@! TF.FileFunction,Copper,L1,Top,Signal*
%FSLAX46Y46*%
G04 Gerber Fmt 4.6, Leading zero omitted, Abs format (unit mm)*
G04 Created by KiCad (PCBNEW 4.0.6) date Tue Sep 12 14:26:08 2017*
%MOMM*%
%LPD*%
G01*
G04 APERTURE LIST*
%ADD10C,0.100000*%
%ADD11C,0.300000*%
%ADD12R,1.350000X1.350000*%
%ADD13O,1.350000X1.350000*%
%ADD14C,1.600000*%
%ADD15O,1.600000X1.600000*%
%ADD16R,1.700000X1.700000*%
%ADD17O,1.700000X1.700000*%
%ADD18R,1.524000X1.524000*%
%ADD19C,1.524000*%
%ADD20C,0.400000*%
G04 APERTURE END LIST*
D10*
D11*
X102107145Y-82332143D02*
X102321431Y-82403571D01*
X102678574Y-82403571D01*
X102821431Y-82332143D01*
X102892860Y-82260714D01*
X102964288Y-82117857D01*
X102964288Y-81975000D01*
X102892860Y-81832143D01*
X102821431Y-81760714D01*
X102678574Y-81689286D01*
X102392860Y-81617857D01*
X102250002Y-81546429D01*
X102178574Y-81475000D01*
X102107145Y-81332143D01*
X102107145Y-81189286D01*
X102178574Y-81046429D01*
X102250002Y-80975000D01*
X102392860Y-80903571D01*
X102750002Y-80903571D01*
X102964288Y-80975000D01*
X104035716Y-80903571D02*
X104035716Y-81975000D01*
X103964288Y-82189286D01*
X103821431Y-82332143D01*
X103607145Y-82403571D01*
X103464288Y-82403571D01*
X105250002Y-81617857D02*
X104750002Y-81617857D01*
X104750002Y-82403571D02*
X104750002Y-80903571D01*
X105464288Y-80903571D01*
X107107144Y-82332143D02*
X107321430Y-82403571D01*
X107678573Y-82403571D01*
X107821430Y-82332143D01*
X107892859Y-82260714D01*
X107964287Y-82117857D01*
X107964287Y-81975000D01*
X107892859Y-81832143D01*
X107821430Y-81760714D01*
X107678573Y-81689286D01*
X107392859Y-81617857D01*
X107250001Y-81546429D01*
X107178573Y-81475000D01*
X107107144Y-81332143D01*
X107107144Y-81189286D01*
X107178573Y-81046429D01*
X107250001Y-80975000D01*
X107392859Y-80903571D01*
X107750001Y-80903571D01*
X107964287Y-80975000D01*
X108392858Y-81403571D02*
X108964287Y-81403571D01*
X108607144Y-80903571D02*
X108607144Y-82189286D01*
X108678572Y-82332143D01*
X108821430Y-82403571D01*
X108964287Y-82403571D01*
X110107144Y-81403571D02*
X110107144Y-82403571D01*
X109464287Y-81403571D02*
X109464287Y-82189286D01*
X109535715Y-82332143D01*
X109678573Y-82403571D01*
X109892858Y-82403571D01*
X110035715Y-82332143D01*
X110107144Y-82260714D01*
X111464287Y-82403571D02*
X111464287Y-80903571D01*
X111464287Y-82332143D02*
X111321430Y-82403571D01*
X111035716Y-82403571D01*
X110892858Y-82332143D01*
X110821430Y-82260714D01*
X110750001Y-82117857D01*
X110750001Y-81689286D01*
X110821430Y-81546429D01*
X110892858Y-81475000D01*
X111035716Y-81403571D01*
X111321430Y-81403571D01*
X111464287Y-81475000D01*
X112035716Y-81403571D02*
X112392859Y-82403571D01*
X112750001Y-81403571D02*
X112392859Y-82403571D01*
X112250001Y-82760714D01*
X112178573Y-82832143D01*
X112035716Y-82903571D01*
X114321430Y-80903571D02*
X114678573Y-82403571D01*
X114964287Y-81332143D01*
X115250001Y-82403571D01*
X115607144Y-80903571D01*
X116750001Y-82332143D02*
X116607144Y-82403571D01*
X116321430Y-82403571D01*
X116178573Y-82332143D01*
X116107144Y-82189286D01*
X116107144Y-81617857D01*
X116178573Y-81475000D01*
X116321430Y-81403571D01*
X116607144Y-81403571D01*
X116750001Y-81475000D01*
X116821430Y-81617857D01*
X116821430Y-81760714D01*
X116107144Y-81903571D01*
X118035715Y-82332143D02*
X117892858Y-82403571D01*
X117607144Y-82403571D01*
X117464287Y-82332143D01*
X117392858Y-82189286D01*
X117392858Y-81617857D01*
X117464287Y-81475000D01*
X117607144Y-81403571D01*
X117892858Y-81403571D01*
X118035715Y-81475000D01*
X118107144Y-81617857D01*
X118107144Y-81760714D01*
X117392858Y-81903571D01*
X118750001Y-82403571D02*
X118750001Y-80903571D01*
X118892858Y-81832143D02*
X119321429Y-82403571D01*
X119321429Y-81403571D02*
X118750001Y-81975000D01*
X121892858Y-82403571D02*
X121035715Y-82403571D01*
X121464287Y-82403571D02*
X121464287Y-80903571D01*
X121321430Y-81117857D01*
X121178572Y-81260714D01*
X121035715Y-81332143D01*
X122821429Y-80903571D02*
X122964286Y-80903571D01*
X123107143Y-80975000D01*
X123178572Y-81046429D01*
X123250001Y-81189286D01*
X123321429Y-81475000D01*
X123321429Y-81832143D01*
X123250001Y-82117857D01*
X123178572Y-82260714D01*
X123107143Y-82332143D01*
X122964286Y-82403571D01*
X122821429Y-82403571D01*
X122678572Y-82332143D01*
X122607143Y-82260714D01*
X122535715Y-82117857D01*
X122464286Y-81832143D01*
X122464286Y-81475000D01*
X122535715Y-81189286D01*
X122607143Y-81046429D01*
X122678572Y-80975000D01*
X122821429Y-80903571D01*
X123964286Y-82260714D02*
X124035714Y-82332143D01*
X123964286Y-82403571D01*
X123892857Y-82332143D01*
X123964286Y-82260714D01*
X123964286Y-82403571D01*
X124750000Y-82403571D02*
X125035715Y-82403571D01*
X125178572Y-82332143D01*
X125250000Y-82260714D01*
X125392858Y-82046429D01*
X125464286Y-81760714D01*
X125464286Y-81189286D01*
X125392858Y-81046429D01*
X125321429Y-80975000D01*
X125178572Y-80903571D01*
X124892858Y-80903571D01*
X124750000Y-80975000D01*
X124678572Y-81046429D01*
X124607143Y-81189286D01*
X124607143Y-81546429D01*
X124678572Y-81689286D01*
X124750000Y-81760714D01*
X124892858Y-81832143D01*
X125178572Y-81832143D01*
X125321429Y-81760714D01*
X125392858Y-81689286D01*
X125464286Y-81546429D01*
X126107143Y-82260714D02*
X126178571Y-82332143D01*
X126107143Y-82403571D01*
X126035714Y-82332143D01*
X126107143Y-82260714D01*
X126107143Y-82403571D01*
X126750000Y-81046429D02*
X126821429Y-80975000D01*
X126964286Y-80903571D01*
X127321429Y-80903571D01*
X127464286Y-80975000D01*
X127535715Y-81046429D01*
X127607143Y-81189286D01*
X127607143Y-81332143D01*
X127535715Y-81546429D01*
X126678572Y-82403571D01*
X127607143Y-82403571D01*
X128535714Y-80903571D02*
X128678571Y-80903571D01*
X128821428Y-80975000D01*
X128892857Y-81046429D01*
X128964286Y-81189286D01*
X129035714Y-81475000D01*
X129035714Y-81832143D01*
X128964286Y-82117857D01*
X128892857Y-82260714D01*
X128821428Y-82332143D01*
X128678571Y-82403571D01*
X128535714Y-82403571D01*
X128392857Y-82332143D01*
X128321428Y-82260714D01*
X128250000Y-82117857D01*
X128178571Y-81832143D01*
X128178571Y-81475000D01*
X128250000Y-81189286D01*
X128321428Y-81046429D01*
X128392857Y-80975000D01*
X128535714Y-80903571D01*
X130464285Y-82403571D02*
X129607142Y-82403571D01*
X130035714Y-82403571D02*
X130035714Y-80903571D01*
X129892857Y-81117857D01*
X129749999Y-81260714D01*
X129607142Y-81332143D01*
X130964285Y-80903571D02*
X131964285Y-80903571D01*
X131321428Y-82403571D01*
X106678570Y-84953571D02*
X106678570Y-83453571D01*
X107535713Y-84953571D01*
X107535713Y-83453571D01*
X108892856Y-84953571D02*
X108892856Y-84167857D01*
X108821427Y-84025000D01*
X108678570Y-83953571D01*
X108392856Y-83953571D01*
X108249999Y-84025000D01*
X108892856Y-84882143D02*
X108749999Y-84953571D01*
X108392856Y-84953571D01*
X108249999Y-84882143D01*
X108178570Y-84739286D01*
X108178570Y-84596429D01*
X108249999Y-84453571D01*
X108392856Y-84382143D01*
X108749999Y-84382143D01*
X108892856Y-84310714D01*
X109821428Y-84953571D02*
X109678570Y-84882143D01*
X109607142Y-84810714D01*
X109535713Y-84667857D01*
X109535713Y-84239286D01*
X109607142Y-84096429D01*
X109678570Y-84025000D01*
X109821428Y-83953571D01*
X110035713Y-83953571D01*
X110178570Y-84025000D01*
X110249999Y-84096429D01*
X110321428Y-84239286D01*
X110321428Y-84667857D01*
X110249999Y-84810714D01*
X110178570Y-84882143D01*
X110035713Y-84953571D01*
X109821428Y-84953571D01*
X110964285Y-84953571D02*
X110964285Y-83453571D01*
X111107142Y-84382143D02*
X111535713Y-84953571D01*
X111535713Y-83953571D02*
X110964285Y-84525000D01*
X112178571Y-84953571D02*
X112178571Y-83953571D01*
X112178571Y-83453571D02*
X112107142Y-83525000D01*
X112178571Y-83596429D01*
X112249999Y-83525000D01*
X112178571Y-83453571D01*
X112178571Y-83596429D01*
X112964285Y-84882143D02*
X112964285Y-84953571D01*
X112892857Y-85096429D01*
X112821428Y-85167857D01*
X115464286Y-84953571D02*
X114750000Y-84953571D01*
X114750000Y-83453571D01*
X116607143Y-83953571D02*
X116607143Y-84953571D01*
X115964286Y-83953571D02*
X115964286Y-84739286D01*
X116035714Y-84882143D01*
X116178572Y-84953571D01*
X116392857Y-84953571D01*
X116535714Y-84882143D01*
X116607143Y-84810714D01*
X117321429Y-84953571D02*
X117321429Y-83453571D01*
X117464286Y-84382143D02*
X117892857Y-84953571D01*
X117892857Y-83953571D02*
X117321429Y-84525000D01*
X119107143Y-84882143D02*
X118964286Y-84953571D01*
X118678572Y-84953571D01*
X118535715Y-84882143D01*
X118464286Y-84739286D01*
X118464286Y-84167857D01*
X118535715Y-84025000D01*
X118678572Y-83953571D01*
X118964286Y-83953571D01*
X119107143Y-84025000D01*
X119178572Y-84167857D01*
X119178572Y-84310714D01*
X118464286Y-84453571D01*
X119892857Y-84882143D02*
X119892857Y-84953571D01*
X119821429Y-85096429D01*
X119750000Y-85167857D01*
X122392858Y-84953571D02*
X121678572Y-84953571D01*
X121678572Y-83453571D01*
X123535715Y-83953571D02*
X123535715Y-84953571D01*
X122892858Y-83953571D02*
X122892858Y-84739286D01*
X122964286Y-84882143D01*
X123107144Y-84953571D01*
X123321429Y-84953571D01*
X123464286Y-84882143D01*
X123535715Y-84810714D01*
X124250001Y-84953571D02*
X124250001Y-83453571D01*
X124392858Y-84382143D02*
X124821429Y-84953571D01*
X124821429Y-83953571D02*
X124250001Y-84525000D01*
X126107144Y-84953571D02*
X126107144Y-84167857D01*
X126035715Y-84025000D01*
X125892858Y-83953571D01*
X125607144Y-83953571D01*
X125464287Y-84025000D01*
X126107144Y-84882143D02*
X125964287Y-84953571D01*
X125607144Y-84953571D01*
X125464287Y-84882143D01*
X125392858Y-84739286D01*
X125392858Y-84596429D01*
X125464287Y-84453571D01*
X125607144Y-84382143D01*
X125964287Y-84382143D01*
X126107144Y-84310714D01*
X126750001Y-84882143D02*
X126892858Y-84953571D01*
X127178573Y-84953571D01*
X127321430Y-84882143D01*
X127392858Y-84739286D01*
X127392858Y-84667857D01*
X127321430Y-84525000D01*
X127178573Y-84453571D01*
X126964287Y-84453571D01*
X126821430Y-84382143D01*
X126750001Y-84239286D01*
X126750001Y-84167857D01*
X126821430Y-84025000D01*
X126964287Y-83953571D01*
X127178573Y-83953571D01*
X127321430Y-84025000D01*
D12*
X147320000Y-108204000D03*
D13*
X147320000Y-106204000D03*
X147320000Y-104204000D03*
D14*
X90424000Y-107696000D03*
D15*
X90424000Y-97536000D03*
D14*
X100330000Y-107696000D03*
D15*
X100330000Y-97536000D03*
D14*
X110490000Y-107696000D03*
D15*
X110490000Y-97536000D03*
D14*
X120650000Y-107696000D03*
D15*
X120650000Y-97536000D03*
D14*
X125476000Y-107696000D03*
D15*
X125476000Y-97536000D03*
D14*
X85344000Y-97536000D03*
D15*
X85344000Y-107696000D03*
D14*
X95250000Y-97536000D03*
D15*
X95250000Y-107696000D03*
D14*
X105410000Y-97536000D03*
D15*
X105410000Y-107696000D03*
D14*
X115570000Y-97536000D03*
D15*
X115570000Y-107696000D03*
D16*
X92964000Y-112776000D03*
D17*
X90424000Y-112776000D03*
X87884000Y-112776000D03*
X85344000Y-112776000D03*
D16*
X107442000Y-112776000D03*
D17*
X104902000Y-112776000D03*
X102362000Y-112776000D03*
X99822000Y-112776000D03*
D16*
X122428000Y-112776000D03*
D17*
X119888000Y-112776000D03*
X117348000Y-112776000D03*
X114808000Y-112776000D03*
D16*
X137922000Y-112776000D03*
D17*
X135382000Y-112776000D03*
X132842000Y-112776000D03*
X130302000Y-112776000D03*
D18*
X87370000Y-70270000D03*
D19*
X89910000Y-70270000D03*
X92450000Y-70270000D03*
X94990000Y-70270000D03*
X97530000Y-70270000D03*
X100070000Y-70270000D03*
X102610000Y-70270000D03*
X105150000Y-70270000D03*
X107690000Y-70270000D03*
X110230000Y-70270000D03*
X112770000Y-70270000D03*
X115310000Y-70270000D03*
X117850000Y-70270000D03*
X120390000Y-70270000D03*
X122930000Y-70270000D03*
X125470000Y-70270000D03*
X128010000Y-70270000D03*
X130550000Y-70270000D03*
X133090000Y-70270000D03*
X135630000Y-70270000D03*
X135630000Y-93130000D03*
X133090000Y-93130000D03*
X130550000Y-93130000D03*
X128010000Y-93130000D03*
X125470000Y-93130000D03*
X122930000Y-93130000D03*
X120390000Y-93130000D03*
X117850000Y-93130000D03*
X115310000Y-93130000D03*
X112770000Y-93130000D03*
X110230000Y-93130000D03*
X107690000Y-93130000D03*
X105150000Y-93130000D03*
X102610000Y-93130000D03*
X100070000Y-93130000D03*
X97530000Y-93130000D03*
X94990000Y-93130000D03*
X92450000Y-93130000D03*
X89910000Y-93130000D03*
D18*
X87370000Y-93130000D03*
D19*
X130810000Y-107950000D03*
X133350000Y-107950000D03*
X135890000Y-107950000D03*
X138430000Y-107950000D03*
X140970000Y-107950000D03*
X143510000Y-107950000D03*
X143510000Y-97790000D03*
X140970000Y-97790000D03*
X138430000Y-97790000D03*
X135890000Y-97790000D03*
X133350000Y-97790000D03*
X130810000Y-97790000D03*
D12*
X81280000Y-71120000D03*
D13*
X81280000Y-69120000D03*
D20*
X130810000Y-97790000D02*
X130810000Y-97190000D01*
X130810000Y-97190000D02*
X133000000Y-95000000D01*
X92040000Y-91000000D02*
X89910000Y-93130000D01*
X137000000Y-91000000D02*
X92040000Y-91000000D01*
X138000000Y-92000000D02*
X137000000Y-91000000D01*
X138000000Y-94000000D02*
X138000000Y-92000000D01*
X137000000Y-95000000D02*
X138000000Y-94000000D01*
X133000000Y-95000000D02*
X137000000Y-95000000D01*
X90424000Y-112776000D02*
X90424000Y-107696000D01*
X125470000Y-70270000D02*
X125470000Y-73146000D01*
X95504000Y-102616000D02*
X90424000Y-97536000D01*
X146304000Y-102616000D02*
X95504000Y-102616000D01*
X149352000Y-99568000D02*
X146304000Y-102616000D01*
X149352000Y-79248000D02*
X149352000Y-99568000D01*
X143764000Y-73660000D02*
X149352000Y-79248000D01*
X125984000Y-73660000D02*
X143764000Y-73660000D01*
X125470000Y-73146000D02*
X125984000Y-73660000D01*
X100330000Y-107696000D02*
X100330000Y-108204000D01*
X100330000Y-108204000D02*
X104902000Y-112776000D01*
X122930000Y-70270000D02*
X122930000Y-73146000D01*
X104394000Y-101600000D02*
X100330000Y-97536000D01*
X145796000Y-101600000D02*
X104394000Y-101600000D01*
X148336000Y-99060000D02*
X145796000Y-101600000D01*
X148336000Y-79756000D02*
X148336000Y-99060000D01*
X143256000Y-74676000D02*
X148336000Y-79756000D01*
X124460000Y-74676000D02*
X143256000Y-74676000D01*
X122930000Y-73146000D02*
X124460000Y-74676000D01*
X110490000Y-107696000D02*
X112776000Y-109982000D01*
X117094000Y-109982000D02*
X119888000Y-112776000D01*
X112776000Y-109982000D02*
X117094000Y-109982000D01*
X120390000Y-70270000D02*
X120390000Y-73654000D01*
X113538000Y-100584000D02*
X110490000Y-97536000D01*
X145288000Y-100584000D02*
X113538000Y-100584000D01*
X147320000Y-98552000D02*
X145288000Y-100584000D01*
X147320000Y-80264000D02*
X147320000Y-98552000D01*
X142748000Y-75692000D02*
X147320000Y-80264000D01*
X122428000Y-75692000D02*
X142748000Y-75692000D01*
X120390000Y-73654000D02*
X122428000Y-75692000D01*
X120650000Y-107696000D02*
X122682000Y-109728000D01*
X132334000Y-109728000D02*
X135382000Y-112776000D01*
X122682000Y-109728000D02*
X132334000Y-109728000D01*
X120650000Y-97536000D02*
X120650000Y-97790000D01*
X120650000Y-97790000D02*
X122428000Y-99568000D01*
X122428000Y-99568000D02*
X144780000Y-99568000D01*
X144780000Y-99568000D02*
X146304000Y-98044000D01*
X146304000Y-98044000D02*
X146304000Y-80772000D01*
X146304000Y-80772000D02*
X142240000Y-76708000D01*
X142240000Y-76708000D02*
X120904000Y-76708000D01*
X120904000Y-76708000D02*
X117850000Y-73654000D01*
X117850000Y-73654000D02*
X117850000Y-70270000D01*
X125476000Y-107696000D02*
X127000000Y-106172000D01*
X139192000Y-106172000D02*
X140970000Y-107950000D01*
X127000000Y-106172000D02*
X139192000Y-106172000D01*
X117850000Y-93130000D02*
X117850000Y-93974000D01*
X123444000Y-95504000D02*
X125476000Y-97536000D01*
X119380000Y-95504000D02*
X123444000Y-95504000D01*
X117850000Y-93974000D02*
X119380000Y-95504000D01*
X85344000Y-107696000D02*
X84201000Y-107696000D01*
X102952000Y-68072000D02*
X105150000Y-70270000D01*
X85852000Y-68072000D02*
X102952000Y-68072000D01*
X84836000Y-69088000D02*
X85852000Y-68072000D01*
X84836000Y-74168000D02*
X84836000Y-69088000D01*
X79756000Y-79248000D02*
X84836000Y-74168000D01*
X79756000Y-103251000D02*
X79756000Y-79248000D01*
X84201000Y-107696000D02*
X79756000Y-103251000D01*
X105150000Y-70270000D02*
X105150000Y-70098000D01*
X105150000Y-70270000D02*
X105068000Y-70270000D01*
X85344000Y-107696000D02*
X85344000Y-112776000D01*
X102610000Y-70270000D02*
X102610000Y-73158000D01*
X93218000Y-105664000D02*
X95250000Y-107696000D01*
X83312000Y-105664000D02*
X93218000Y-105664000D01*
X80772000Y-103124000D02*
X83312000Y-105664000D01*
X80772000Y-79756000D02*
X80772000Y-103124000D01*
X84836000Y-75692000D02*
X80772000Y-79756000D01*
X100076000Y-75692000D02*
X84836000Y-75692000D01*
X102610000Y-73158000D02*
X100076000Y-75692000D01*
X102610000Y-70270000D02*
X102450000Y-70270000D01*
X102610000Y-70270000D02*
X102610000Y-70098000D01*
X95250000Y-107696000D02*
X95250000Y-110744000D01*
X95250000Y-110744000D02*
X97282000Y-112776000D01*
X97282000Y-112776000D02*
X99822000Y-112776000D01*
X107690000Y-70270000D02*
X107690000Y-74174000D01*
X102362000Y-104648000D02*
X105410000Y-107696000D01*
X83820000Y-104648000D02*
X102362000Y-104648000D01*
X81788000Y-102616000D02*
X83820000Y-104648000D01*
X81788000Y-79756000D02*
X81788000Y-102616000D01*
X84836000Y-76708000D02*
X81788000Y-79756000D01*
X105156000Y-76708000D02*
X84836000Y-76708000D01*
X107690000Y-74174000D02*
X105156000Y-76708000D01*
X107690000Y-70270000D02*
X107530000Y-70270000D01*
X105410000Y-107696000D02*
X107950000Y-107696000D01*
X107950000Y-107696000D02*
X113030000Y-112776000D01*
X113030000Y-112776000D02*
X114808000Y-112776000D01*
X82804000Y-98552000D02*
X82804000Y-102108000D01*
X84328000Y-103632000D02*
X87884000Y-103632000D01*
X82804000Y-102108000D02*
X84328000Y-103632000D01*
X112770000Y-93130000D02*
X112770000Y-94482000D01*
X111506000Y-103632000D02*
X115570000Y-107696000D01*
X87884000Y-103632000D02*
X111506000Y-103632000D01*
X82804000Y-96520000D02*
X82804000Y-98552000D01*
X83820000Y-95504000D02*
X82804000Y-96520000D01*
X111748000Y-95504000D02*
X83820000Y-95504000D01*
X112770000Y-94482000D02*
X111748000Y-95504000D01*
X115570000Y-107696000D02*
X117348000Y-107696000D01*
X128270000Y-110744000D02*
X130302000Y-112776000D01*
X120396000Y-110744000D02*
X128270000Y-110744000D01*
X117348000Y-107696000D02*
X120396000Y-110744000D01*
X113284000Y-115316000D02*
X98044000Y-115316000D01*
X95504000Y-112776000D02*
X92964000Y-112776000D01*
X98044000Y-115316000D02*
X95504000Y-112776000D01*
X127508000Y-115316000D02*
X113284000Y-115316000D01*
X110744000Y-112776000D02*
X107442000Y-112776000D01*
X113284000Y-115316000D02*
X110744000Y-112776000D01*
X122428000Y-112776000D02*
X124968000Y-112776000D01*
X135382000Y-115316000D02*
X137922000Y-112776000D01*
X127508000Y-115316000D02*
X135382000Y-115316000D01*
X124968000Y-112776000D02*
X127508000Y-115316000D01*
M02*
