G04 #@! TF.FileFunction,Legend,Top*
%FSLAX46Y46*%
G04 Gerber Fmt 4.6, Leading zero omitted, Abs format (unit mm)*
G04 Created by KiCad (PCBNEW 4.0.6) date Tue Sep 12 11:08:01 2017*
%MOMM*%
%LPD*%
G01*
G04 APERTURE LIST*
%ADD10C,0.100000*%
%ADD11C,0.200000*%
%ADD12C,0.120000*%
%ADD13C,0.150000*%
G04 APERTURE END LIST*
D10*
D11*
X141500000Y-94400000D02*
X141500000Y-69000000D01*
D12*
X148440000Y-107204000D02*
X148440000Y-103084000D01*
X148440000Y-103084000D02*
X146200000Y-103084000D01*
X146200000Y-103084000D02*
X146200000Y-107204000D01*
X146200000Y-107204000D02*
X148440000Y-107204000D01*
X148440000Y-108204000D02*
X148440000Y-109324000D01*
X148440000Y-109324000D02*
X147320000Y-109324000D01*
X89114000Y-105826000D02*
X91734000Y-105826000D01*
X91734000Y-105826000D02*
X91734000Y-99406000D01*
X91734000Y-99406000D02*
X89114000Y-99406000D01*
X89114000Y-99406000D02*
X89114000Y-105826000D01*
X90424000Y-106716000D02*
X90424000Y-105826000D01*
X90424000Y-98516000D02*
X90424000Y-99406000D01*
X99020000Y-105826000D02*
X101640000Y-105826000D01*
X101640000Y-105826000D02*
X101640000Y-99406000D01*
X101640000Y-99406000D02*
X99020000Y-99406000D01*
X99020000Y-99406000D02*
X99020000Y-105826000D01*
X100330000Y-106716000D02*
X100330000Y-105826000D01*
X100330000Y-98516000D02*
X100330000Y-99406000D01*
X109180000Y-105826000D02*
X111800000Y-105826000D01*
X111800000Y-105826000D02*
X111800000Y-99406000D01*
X111800000Y-99406000D02*
X109180000Y-99406000D01*
X109180000Y-99406000D02*
X109180000Y-105826000D01*
X110490000Y-106716000D02*
X110490000Y-105826000D01*
X110490000Y-98516000D02*
X110490000Y-99406000D01*
X119340000Y-105826000D02*
X121960000Y-105826000D01*
X121960000Y-105826000D02*
X121960000Y-99406000D01*
X121960000Y-99406000D02*
X119340000Y-99406000D01*
X119340000Y-99406000D02*
X119340000Y-105826000D01*
X120650000Y-106716000D02*
X120650000Y-105826000D01*
X120650000Y-98516000D02*
X120650000Y-99406000D01*
X124166000Y-105826000D02*
X126786000Y-105826000D01*
X126786000Y-105826000D02*
X126786000Y-99406000D01*
X126786000Y-99406000D02*
X124166000Y-99406000D01*
X124166000Y-99406000D02*
X124166000Y-105826000D01*
X125476000Y-106716000D02*
X125476000Y-105826000D01*
X125476000Y-98516000D02*
X125476000Y-99406000D01*
X86654000Y-99406000D02*
X84034000Y-99406000D01*
X84034000Y-99406000D02*
X84034000Y-105826000D01*
X84034000Y-105826000D02*
X86654000Y-105826000D01*
X86654000Y-105826000D02*
X86654000Y-99406000D01*
X85344000Y-98516000D02*
X85344000Y-99406000D01*
X85344000Y-106716000D02*
X85344000Y-105826000D01*
X96560000Y-99406000D02*
X93940000Y-99406000D01*
X93940000Y-99406000D02*
X93940000Y-105826000D01*
X93940000Y-105826000D02*
X96560000Y-105826000D01*
X96560000Y-105826000D02*
X96560000Y-99406000D01*
X95250000Y-98516000D02*
X95250000Y-99406000D01*
X95250000Y-106716000D02*
X95250000Y-105826000D01*
X106720000Y-99406000D02*
X104100000Y-99406000D01*
X104100000Y-99406000D02*
X104100000Y-105826000D01*
X104100000Y-105826000D02*
X106720000Y-105826000D01*
X106720000Y-105826000D02*
X106720000Y-99406000D01*
X105410000Y-98516000D02*
X105410000Y-99406000D01*
X105410000Y-106716000D02*
X105410000Y-105826000D01*
X116880000Y-99406000D02*
X114260000Y-99406000D01*
X114260000Y-99406000D02*
X114260000Y-105826000D01*
X114260000Y-105826000D02*
X116880000Y-105826000D01*
X116880000Y-105826000D02*
X116880000Y-99406000D01*
X115570000Y-98516000D02*
X115570000Y-99406000D01*
X115570000Y-106716000D02*
X115570000Y-105826000D01*
X91694000Y-111386000D02*
X83954000Y-111386000D01*
X83954000Y-111386000D02*
X83954000Y-114166000D01*
X83954000Y-114166000D02*
X91694000Y-114166000D01*
X91694000Y-114166000D02*
X91694000Y-111386000D01*
X92964000Y-111386000D02*
X94354000Y-111386000D01*
X94354000Y-111386000D02*
X94354000Y-112776000D01*
X106172000Y-111386000D02*
X98432000Y-111386000D01*
X98432000Y-111386000D02*
X98432000Y-114166000D01*
X98432000Y-114166000D02*
X106172000Y-114166000D01*
X106172000Y-114166000D02*
X106172000Y-111386000D01*
X107442000Y-111386000D02*
X108832000Y-111386000D01*
X108832000Y-111386000D02*
X108832000Y-112776000D01*
X121158000Y-111386000D02*
X113418000Y-111386000D01*
X113418000Y-111386000D02*
X113418000Y-114166000D01*
X113418000Y-114166000D02*
X121158000Y-114166000D01*
X121158000Y-114166000D02*
X121158000Y-111386000D01*
X122428000Y-111386000D02*
X123818000Y-111386000D01*
X123818000Y-111386000D02*
X123818000Y-112776000D01*
X136652000Y-111386000D02*
X128912000Y-111386000D01*
X128912000Y-111386000D02*
X128912000Y-114166000D01*
X128912000Y-114166000D02*
X136652000Y-114166000D01*
X136652000Y-114166000D02*
X136652000Y-111386000D01*
X137922000Y-111386000D02*
X139312000Y-111386000D01*
X139312000Y-111386000D02*
X139312000Y-112776000D01*
D13*
X86100000Y-94400000D02*
X144520000Y-94400000D01*
X144520000Y-94400000D02*
X144520000Y-69000000D01*
X144520000Y-69000000D02*
X86100000Y-69000000D01*
X86100000Y-69000000D02*
X86100000Y-94400000D01*
X129540000Y-109220000D02*
X129540000Y-96520000D01*
X129540000Y-96520000D02*
X144780000Y-96520000D01*
X144780000Y-96520000D02*
X144780000Y-109220000D01*
X144780000Y-109220000D02*
X129540000Y-109220000D01*
X146986667Y-109776381D02*
X146986667Y-110490667D01*
X146939047Y-110633524D01*
X146843809Y-110728762D01*
X146700952Y-110776381D01*
X146605714Y-110776381D01*
X147986667Y-110776381D02*
X147415238Y-110776381D01*
X147700952Y-110776381D02*
X147700952Y-109776381D01*
X147605714Y-109919238D01*
X147510476Y-110014476D01*
X147415238Y-110062095D01*
X88566381Y-102782666D02*
X88090190Y-103116000D01*
X88566381Y-103354095D02*
X87566381Y-103354095D01*
X87566381Y-102973142D01*
X87614000Y-102877904D01*
X87661619Y-102830285D01*
X87756857Y-102782666D01*
X87899714Y-102782666D01*
X87994952Y-102830285D01*
X88042571Y-102877904D01*
X88090190Y-102973142D01*
X88090190Y-103354095D01*
X88566381Y-101830285D02*
X88566381Y-102401714D01*
X88566381Y-102116000D02*
X87566381Y-102116000D01*
X87709238Y-102211238D01*
X87804476Y-102306476D01*
X87852095Y-102401714D01*
X98472381Y-102782666D02*
X97996190Y-103116000D01*
X98472381Y-103354095D02*
X97472381Y-103354095D01*
X97472381Y-102973142D01*
X97520000Y-102877904D01*
X97567619Y-102830285D01*
X97662857Y-102782666D01*
X97805714Y-102782666D01*
X97900952Y-102830285D01*
X97948571Y-102877904D01*
X97996190Y-102973142D01*
X97996190Y-103354095D01*
X97567619Y-102401714D02*
X97520000Y-102354095D01*
X97472381Y-102258857D01*
X97472381Y-102020761D01*
X97520000Y-101925523D01*
X97567619Y-101877904D01*
X97662857Y-101830285D01*
X97758095Y-101830285D01*
X97900952Y-101877904D01*
X98472381Y-102449333D01*
X98472381Y-101830285D01*
X108632381Y-102782666D02*
X108156190Y-103116000D01*
X108632381Y-103354095D02*
X107632381Y-103354095D01*
X107632381Y-102973142D01*
X107680000Y-102877904D01*
X107727619Y-102830285D01*
X107822857Y-102782666D01*
X107965714Y-102782666D01*
X108060952Y-102830285D01*
X108108571Y-102877904D01*
X108156190Y-102973142D01*
X108156190Y-103354095D01*
X107632381Y-102449333D02*
X107632381Y-101830285D01*
X108013333Y-102163619D01*
X108013333Y-102020761D01*
X108060952Y-101925523D01*
X108108571Y-101877904D01*
X108203810Y-101830285D01*
X108441905Y-101830285D01*
X108537143Y-101877904D01*
X108584762Y-101925523D01*
X108632381Y-102020761D01*
X108632381Y-102306476D01*
X108584762Y-102401714D01*
X108537143Y-102449333D01*
X118792381Y-102782666D02*
X118316190Y-103116000D01*
X118792381Y-103354095D02*
X117792381Y-103354095D01*
X117792381Y-102973142D01*
X117840000Y-102877904D01*
X117887619Y-102830285D01*
X117982857Y-102782666D01*
X118125714Y-102782666D01*
X118220952Y-102830285D01*
X118268571Y-102877904D01*
X118316190Y-102973142D01*
X118316190Y-103354095D01*
X118125714Y-101925523D02*
X118792381Y-101925523D01*
X117744762Y-102163619D02*
X118459048Y-102401714D01*
X118459048Y-101782666D01*
X123618381Y-102782666D02*
X123142190Y-103116000D01*
X123618381Y-103354095D02*
X122618381Y-103354095D01*
X122618381Y-102973142D01*
X122666000Y-102877904D01*
X122713619Y-102830285D01*
X122808857Y-102782666D01*
X122951714Y-102782666D01*
X123046952Y-102830285D01*
X123094571Y-102877904D01*
X123142190Y-102973142D01*
X123142190Y-103354095D01*
X122618381Y-101877904D02*
X122618381Y-102354095D01*
X123094571Y-102401714D01*
X123046952Y-102354095D01*
X122999333Y-102258857D01*
X122999333Y-102020761D01*
X123046952Y-101925523D01*
X123094571Y-101877904D01*
X123189810Y-101830285D01*
X123427905Y-101830285D01*
X123523143Y-101877904D01*
X123570762Y-101925523D01*
X123618381Y-102020761D01*
X123618381Y-102258857D01*
X123570762Y-102354095D01*
X123523143Y-102401714D01*
X83256381Y-102782666D02*
X82780190Y-103116000D01*
X83256381Y-103354095D02*
X82256381Y-103354095D01*
X82256381Y-102973142D01*
X82304000Y-102877904D01*
X82351619Y-102830285D01*
X82446857Y-102782666D01*
X82589714Y-102782666D01*
X82684952Y-102830285D01*
X82732571Y-102877904D01*
X82780190Y-102973142D01*
X82780190Y-103354095D01*
X82256381Y-101925523D02*
X82256381Y-102116000D01*
X82304000Y-102211238D01*
X82351619Y-102258857D01*
X82494476Y-102354095D01*
X82684952Y-102401714D01*
X83065905Y-102401714D01*
X83161143Y-102354095D01*
X83208762Y-102306476D01*
X83256381Y-102211238D01*
X83256381Y-102020761D01*
X83208762Y-101925523D01*
X83161143Y-101877904D01*
X83065905Y-101830285D01*
X82827810Y-101830285D01*
X82732571Y-101877904D01*
X82684952Y-101925523D01*
X82637333Y-102020761D01*
X82637333Y-102211238D01*
X82684952Y-102306476D01*
X82732571Y-102354095D01*
X82827810Y-102401714D01*
X93416381Y-103036666D02*
X92940190Y-103370000D01*
X93416381Y-103608095D02*
X92416381Y-103608095D01*
X92416381Y-103227142D01*
X92464000Y-103131904D01*
X92511619Y-103084285D01*
X92606857Y-103036666D01*
X92749714Y-103036666D01*
X92844952Y-103084285D01*
X92892571Y-103131904D01*
X92940190Y-103227142D01*
X92940190Y-103608095D01*
X92416381Y-102703333D02*
X92416381Y-102036666D01*
X93416381Y-102465238D01*
X103322381Y-102782666D02*
X102846190Y-103116000D01*
X103322381Y-103354095D02*
X102322381Y-103354095D01*
X102322381Y-102973142D01*
X102370000Y-102877904D01*
X102417619Y-102830285D01*
X102512857Y-102782666D01*
X102655714Y-102782666D01*
X102750952Y-102830285D01*
X102798571Y-102877904D01*
X102846190Y-102973142D01*
X102846190Y-103354095D01*
X102750952Y-102211238D02*
X102703333Y-102306476D01*
X102655714Y-102354095D01*
X102560476Y-102401714D01*
X102512857Y-102401714D01*
X102417619Y-102354095D01*
X102370000Y-102306476D01*
X102322381Y-102211238D01*
X102322381Y-102020761D01*
X102370000Y-101925523D01*
X102417619Y-101877904D01*
X102512857Y-101830285D01*
X102560476Y-101830285D01*
X102655714Y-101877904D01*
X102703333Y-101925523D01*
X102750952Y-102020761D01*
X102750952Y-102211238D01*
X102798571Y-102306476D01*
X102846190Y-102354095D01*
X102941429Y-102401714D01*
X103131905Y-102401714D01*
X103227143Y-102354095D01*
X103274762Y-102306476D01*
X103322381Y-102211238D01*
X103322381Y-102020761D01*
X103274762Y-101925523D01*
X103227143Y-101877904D01*
X103131905Y-101830285D01*
X102941429Y-101830285D01*
X102846190Y-101877904D01*
X102798571Y-101925523D01*
X102750952Y-102020761D01*
X113482381Y-102782666D02*
X113006190Y-103116000D01*
X113482381Y-103354095D02*
X112482381Y-103354095D01*
X112482381Y-102973142D01*
X112530000Y-102877904D01*
X112577619Y-102830285D01*
X112672857Y-102782666D01*
X112815714Y-102782666D01*
X112910952Y-102830285D01*
X112958571Y-102877904D01*
X113006190Y-102973142D01*
X113006190Y-103354095D01*
X113482381Y-102306476D02*
X113482381Y-102116000D01*
X113434762Y-102020761D01*
X113387143Y-101973142D01*
X113244286Y-101877904D01*
X113053810Y-101830285D01*
X112672857Y-101830285D01*
X112577619Y-101877904D01*
X112530000Y-101925523D01*
X112482381Y-102020761D01*
X112482381Y-102211238D01*
X112530000Y-102306476D01*
X112577619Y-102354095D01*
X112672857Y-102401714D01*
X112910952Y-102401714D01*
X113006190Y-102354095D01*
X113053810Y-102306476D01*
X113101429Y-102211238D01*
X113101429Y-102020761D01*
X113053810Y-101925523D01*
X113006190Y-101877904D01*
X112910952Y-101830285D01*
X95758762Y-114109333D02*
X95806381Y-113966476D01*
X95806381Y-113728380D01*
X95758762Y-113633142D01*
X95711143Y-113585523D01*
X95615905Y-113537904D01*
X95520667Y-113537904D01*
X95425429Y-113585523D01*
X95377810Y-113633142D01*
X95330190Y-113728380D01*
X95282571Y-113918857D01*
X95234952Y-114014095D01*
X95187333Y-114061714D01*
X95092095Y-114109333D01*
X94996857Y-114109333D01*
X94901619Y-114061714D01*
X94854000Y-114014095D01*
X94806381Y-113918857D01*
X94806381Y-113680761D01*
X94854000Y-113537904D01*
X94806381Y-113204571D02*
X95806381Y-112966476D01*
X95092095Y-112775999D01*
X95806381Y-112585523D01*
X94806381Y-112347428D01*
X95806381Y-111442666D02*
X95806381Y-112014095D01*
X95806381Y-111728381D02*
X94806381Y-111728381D01*
X94949238Y-111823619D01*
X95044476Y-111918857D01*
X95092095Y-112014095D01*
X110236762Y-114109333D02*
X110284381Y-113966476D01*
X110284381Y-113728380D01*
X110236762Y-113633142D01*
X110189143Y-113585523D01*
X110093905Y-113537904D01*
X109998667Y-113537904D01*
X109903429Y-113585523D01*
X109855810Y-113633142D01*
X109808190Y-113728380D01*
X109760571Y-113918857D01*
X109712952Y-114014095D01*
X109665333Y-114061714D01*
X109570095Y-114109333D01*
X109474857Y-114109333D01*
X109379619Y-114061714D01*
X109332000Y-114014095D01*
X109284381Y-113918857D01*
X109284381Y-113680761D01*
X109332000Y-113537904D01*
X109284381Y-113204571D02*
X110284381Y-112966476D01*
X109570095Y-112775999D01*
X110284381Y-112585523D01*
X109284381Y-112347428D01*
X109379619Y-112014095D02*
X109332000Y-111966476D01*
X109284381Y-111871238D01*
X109284381Y-111633142D01*
X109332000Y-111537904D01*
X109379619Y-111490285D01*
X109474857Y-111442666D01*
X109570095Y-111442666D01*
X109712952Y-111490285D01*
X110284381Y-112061714D01*
X110284381Y-111442666D01*
X125222762Y-114109333D02*
X125270381Y-113966476D01*
X125270381Y-113728380D01*
X125222762Y-113633142D01*
X125175143Y-113585523D01*
X125079905Y-113537904D01*
X124984667Y-113537904D01*
X124889429Y-113585523D01*
X124841810Y-113633142D01*
X124794190Y-113728380D01*
X124746571Y-113918857D01*
X124698952Y-114014095D01*
X124651333Y-114061714D01*
X124556095Y-114109333D01*
X124460857Y-114109333D01*
X124365619Y-114061714D01*
X124318000Y-114014095D01*
X124270381Y-113918857D01*
X124270381Y-113680761D01*
X124318000Y-113537904D01*
X124270381Y-113204571D02*
X125270381Y-112966476D01*
X124556095Y-112775999D01*
X125270381Y-112585523D01*
X124270381Y-112347428D01*
X124270381Y-112061714D02*
X124270381Y-111442666D01*
X124651333Y-111776000D01*
X124651333Y-111633142D01*
X124698952Y-111537904D01*
X124746571Y-111490285D01*
X124841810Y-111442666D01*
X125079905Y-111442666D01*
X125175143Y-111490285D01*
X125222762Y-111537904D01*
X125270381Y-111633142D01*
X125270381Y-111918857D01*
X125222762Y-112014095D01*
X125175143Y-112061714D01*
X140716762Y-114109333D02*
X140764381Y-113966476D01*
X140764381Y-113728380D01*
X140716762Y-113633142D01*
X140669143Y-113585523D01*
X140573905Y-113537904D01*
X140478667Y-113537904D01*
X140383429Y-113585523D01*
X140335810Y-113633142D01*
X140288190Y-113728380D01*
X140240571Y-113918857D01*
X140192952Y-114014095D01*
X140145333Y-114061714D01*
X140050095Y-114109333D01*
X139954857Y-114109333D01*
X139859619Y-114061714D01*
X139812000Y-114014095D01*
X139764381Y-113918857D01*
X139764381Y-113680761D01*
X139812000Y-113537904D01*
X139764381Y-113204571D02*
X140764381Y-112966476D01*
X140050095Y-112775999D01*
X140764381Y-112585523D01*
X139764381Y-112347428D01*
X140097714Y-111537904D02*
X140764381Y-111537904D01*
X139716762Y-111776000D02*
X140431048Y-112014095D01*
X140431048Y-111395047D01*
X108412381Y-82461905D02*
X109221905Y-82461905D01*
X109317143Y-82414286D01*
X109364762Y-82366667D01*
X109412381Y-82271429D01*
X109412381Y-82080952D01*
X109364762Y-81985714D01*
X109317143Y-81938095D01*
X109221905Y-81890476D01*
X108412381Y-81890476D01*
X109412381Y-80890476D02*
X109412381Y-81461905D01*
X109412381Y-81176191D02*
X108412381Y-81176191D01*
X108555238Y-81271429D01*
X108650476Y-81366667D01*
X108698095Y-81461905D01*
X137112381Y-103631905D02*
X137921905Y-103631905D01*
X138017143Y-103584286D01*
X138064762Y-103536667D01*
X138112381Y-103441429D01*
X138112381Y-103250952D01*
X138064762Y-103155714D01*
X138017143Y-103108095D01*
X137921905Y-103060476D01*
X137112381Y-103060476D01*
X137207619Y-102631905D02*
X137160000Y-102584286D01*
X137112381Y-102489048D01*
X137112381Y-102250952D01*
X137160000Y-102155714D01*
X137207619Y-102108095D01*
X137302857Y-102060476D01*
X137398095Y-102060476D01*
X137540952Y-102108095D01*
X138112381Y-102679524D01*
X138112381Y-102060476D01*
M02*
