<?xml version="1.0" standalone="no"?>
 <!DOCTYPE svg PUBLIC "-//W3C//DTD SVG 1.1//EN" 
 "http://www.w3.org/Graphics/SVG/1.1/DTD/svg11.dtd"> 
<svg xmlns="http://www.w3.org/2000/svg" version="1.1" 
    width="29.7002cm" height="21.0007cm" viewBox="0 0 116930 82680 ">
<title>SVG Picture created as mastermind-F.SilkS.svg date 2017/09/11 15:53:11 </title>
  <desc>Picture generated by PCBNEW </desc>
<g style="fill:#000000; fill-opacity:1;stroke:#000000; stroke-opacity:1;
stroke-linecap:round; stroke-linejoin:round; "
 transform="translate(0 0) scale(1 1)">
</g>
<g style="fill:#000000; fill-opacity:0.0; 
stroke:#000000; stroke-width:-0.000393701; stroke-opacity:1; 
stroke-linecap:round; stroke-linejoin:round;">
</g>
<g style="fill:#000000; fill-opacity:0.0; 
stroke:#000000; stroke-width:47.2441; stroke-opacity:1; 
stroke-linecap:round; stroke-linejoin:round;">
<path d="M29263 40515
L29263 39484
" />
<path d="M29263 39484
L26736 39484
" />
<path d="M26736 39484
L26736 40515
" />
<path d="M26736 40515
L29263 40515
" />
<path d="M29614 40000
L29263 40000
" />
<path d="M26385 40000
L26736 40000
" />
</g>
<g style="fill:#000000; fill-opacity:0.0; 
stroke:#000000; stroke-width:59.0551; stroke-opacity:1; 
stroke-linecap:round; stroke-linejoin:round;">
<path d="M26000 55000
L49000 55000
" />
<path d="M49000 55000
L49000 45000
" />
<path d="M49000 45000
L26000 45000
" />
<path d="M26000 45000
L26000 55000
" />
</g>
<g style="fill:#000000; fill-opacity:0.0; 
stroke:#000000; stroke-width:47.2441; stroke-opacity:1; 
stroke-linecap:round; stroke-linejoin:round;">
<path d="M20606 54059
L18984 54059
" />
<path d="M18984 54059
L18984 54940
" />
<path d="M18984 54940
L20606 54940
" />
<path d="M20606 54940
L20606 54059
" />
<path d="M21000 54059
L21440 54059
" />
<path d="M21440 54059
L21440 54500
" />
<path d="M47263 40515
L47263 39484
" />
<path d="M47263 39484
L44736 39484
" />
<path d="M44736 39484
L44736 40515
" />
<path d="M44736 40515
L47263 40515
" />
<path d="M47614 40000
L47263 40000
" />
<path d="M44385 40000
L44736 40000
" />
<path d="M41263 40515
L41263 39484
" />
<path d="M41263 39484
L38736 39484
" />
<path d="M38736 39484
L38736 40515
" />
<path d="M38736 40515
L41263 40515
" />
<path d="M41614 40000
L41263 40000
" />
<path d="M38385 40000
L38736 40000
" />
<path d="M35263 40515
L35263 39484
" />
<path d="M35263 39484
L32736 39484
" />
<path d="M32736 39484
L32736 40515
" />
<path d="M32736 40515
L35263 40515
" />
<path d="M35614 40000
L35263 40000
" />
<path d="M32385 40000
L32736 40000
" />
<path d="M20236 44984
L20236 46015
" />
<path d="M20236 46015
L22763 46015
" />
<path d="M22763 46015
L22763 44984
" />
<path d="M22763 44984
L20236 44984
" />
<path d="M19885 45500
L20236 45500
" />
<path d="M23114 45500
L22763 45500
" />
<path d="M47263 43515
L47263 42484
" />
<path d="M47263 42484
L44736 42484
" />
<path d="M44736 42484
L44736 43515
" />
<path d="M44736 43515
L47263 43515
" />
<path d="M47614 43000
L47263 43000
" />
<path d="M44385 43000
L44736 43000
" />
<path d="M41263 43515
L41263 42484
" />
<path d="M41263 42484
L38736 42484
" />
<path d="M38736 42484
L38736 43515
" />
<path d="M38736 43515
L41263 43515
" />
<path d="M41614 43000
L41263 43000
" />
<path d="M38385 43000
L38736 43000
" />
<path d="M35263 43515
L35263 42484
" />
<path d="M35263 42484
L32736 42484
" />
<path d="M32736 42484
L32736 43515
" />
<path d="M32736 43515
L35263 43515
" />
<path d="M35614 43000
L35263 43000
" />
<path d="M32385 43000
L32736 43000
" />
<path d="M29263 43515
L29263 42484
" />
<path d="M29263 42484
L26736 42484
" />
<path d="M26736 42484
L26736 43515
" />
<path d="M26736 43515
L29263 43515
" />
<path d="M29614 43000
L29263 43000
" />
<path d="M26385 43000
L26736 43000
" />
<path d="M47500 36452
L44452 36452
" />
<path d="M44452 36452
L44452 37547
" />
<path d="M44452 37547
L47500 37547
" />
<path d="M47500 37547
L47500 36452
" />
<path d="M48000 36452
L48547 36452
" />
<path d="M48547 36452
L48547 37000
" />
<path d="M41500 36452
L38452 36452
" />
<path d="M38452 36452
L38452 37547
" />
<path d="M38452 37547
L41500 37547
" />
<path d="M41500 37547
L41500 36452
" />
<path d="M42000 36452
L42547 36452
" />
<path d="M42547 36452
L42547 37000
" />
<path d="M35500 36452
L32452 36452
" />
<path d="M32452 36452
L32452 37547
" />
<path d="M32452 37547
L35500 37547
" />
<path d="M35500 37547
L35500 36452
" />
<path d="M36000 36452
L36547 36452
" />
<path d="M36547 36452
L36547 37000
" />
<path d="M29500 36452
L26452 36452
" />
<path d="M26452 36452
L26452 37547
" />
<path d="M26452 37547
L29500 37547
" />
<path d="M29500 37547
L29500 36452
" />
<path d="M30000 36452
L30547 36452
" />
<path d="M30547 36452
L30547 37000
" />
</g>
<g style="fill:#000000; fill-opacity:0.0; 
stroke:#000000; stroke-width:59.0551; stroke-opacity:1; 
stroke-linecap:round; stroke-linejoin:round;">
<path d="M25000 47500
L25000 52500
" />
<path d="M25000 52500
L19000 52500
" />
<path d="M19000 52500
L19000 47500
" />
<path d="M19000 47500
L25000 47500
" />
<path d="M27934 41087
L27803 40900
" />
<path d="M27709 41087
L27709 40693
L27859 40693
L27896 40712
L27915 40731
L27934 40768
L27934 40825
L27915 40862
L27896 40881
L27859 40900
L27709 40900
" />
<path d="M28271 40825
L28271 41087
" />
<path d="M28178 40675
L28084 40956
L28328 40956
" />
<path d="M34784 50299
L35103 50299
L35140 50281
L35159 50262
L35178 50224
L35178 50149
L35159 50112
L35140 50093
L35103 50074
L34784 50074
" />
<path d="M35178 49681
L35178 49906
" />
<path d="M35178 49793
L34784 49793
L34840 49831
L34878 49868
L34896 49906
" />
<path d="M21619 54631
L21900 54631
L21956 54649
L21994 54687
L22012 54743
L22012 54781
" />
<path d="M22012 54237
L22012 54462
" />
<path d="M22012 54350
L21619 54350
L21675 54387
L21712 54425
L21731 54462
" />
<path d="M45934 41087
L45803 40900
" />
<path d="M45709 41087
L45709 40693
L45859 40693
L45896 40712
L45915 40731
L45934 40768
L45934 40825
L45915 40862
L45896 40881
L45859 40900
L45709 40900
" />
<path d="M46309 41087
L46084 41087
" />
<path d="M46196 41087
L46196 40693
L46159 40750
L46121 40787
L46084 40806
" />
<path d="M39934 41087
L39803 40900
" />
<path d="M39709 41087
L39709 40693
L39859 40693
L39896 40712
L39915 40731
L39934 40768
L39934 40825
L39915 40862
L39896 40881
L39859 40900
L39709 40900
" />
<path d="M40084 40731
L40103 40712
L40140 40693
L40234 40693
L40271 40712
L40290 40731
L40309 40768
L40309 40806
L40290 40862
L40065 41087
L40309 41087
" />
<path d="M33934 41087
L33803 40900
" />
<path d="M33709 41087
L33709 40693
L33859 40693
L33896 40712
L33915 40731
L33934 40768
L33934 40825
L33915 40862
L33896 40881
L33859 40900
L33709 40900
" />
<path d="M34065 40693
L34309 40693
L34178 40843
L34234 40843
L34271 40862
L34290 40881
L34309 40918
L34309 41012
L34290 41050
L34271 41068
L34234 41087
L34121 41087
L34084 41068
L34065 41050
" />
<path d="M21434 44768
L21303 44581
" />
<path d="M21209 44768
L21209 44374
L21359 44374
L21396 44393
L21415 44412
L21434 44449
L21434 44506
L21415 44543
L21396 44562
L21359 44581
L21209 44581
" />
<path d="M21790 44374
L21603 44374
L21584 44562
L21603 44543
L21640 44524
L21734 44524
L21771 44543
L21790 44562
L21809 44599
L21809 44693
L21790 44731
L21771 44749
L21734 44768
L21640 44768
L21603 44749
L21584 44731
" />
<path d="M45934 44087
L45803 43900
" />
<path d="M45709 44087
L45709 43693
L45859 43693
L45896 43712
L45915 43731
L45934 43768
L45934 43825
L45915 43862
L45896 43881
L45859 43900
L45709 43900
" />
<path d="M46271 43693
L46196 43693
L46159 43712
L46140 43731
L46103 43787
L46084 43862
L46084 44012
L46103 44050
L46121 44068
L46159 44087
L46234 44087
L46271 44068
L46290 44050
L46309 44012
L46309 43918
L46290 43881
L46271 43862
L46234 43843
L46159 43843
L46121 43862
L46103 43881
L46084 43918
" />
<path d="M39934 44087
L39803 43900
" />
<path d="M39709 44087
L39709 43693
L39859 43693
L39896 43712
L39915 43731
L39934 43768
L39934 43825
L39915 43862
L39896 43881
L39859 43900
L39709 43900
" />
<path d="M40065 43693
L40328 43693
L40159 44087
" />
<path d="M33934 44087
L33803 43900
" />
<path d="M33709 44087
L33709 43693
L33859 43693
L33896 43712
L33915 43731
L33934 43768
L33934 43825
L33915 43862
L33896 43881
L33859 43900
L33709 43900
" />
<path d="M34159 43862
L34121 43843
L34103 43825
L34084 43787
L34084 43768
L34103 43731
L34121 43712
L34159 43693
L34234 43693
L34271 43712
L34290 43731
L34309 43768
L34309 43787
L34290 43825
L34271 43843
L34234 43862
L34159 43862
L34121 43881
L34103 43900
L34084 43937
L34084 44012
L34103 44050
L34121 44068
L34159 44087
L34234 44087
L34271 44068
L34290 44050
L34309 44012
L34309 43937
L34290 43900
L34271 43881
L34234 43862
" />
<path d="M27934 44087
L27803 43900
" />
<path d="M27709 44087
L27709 43693
L27859 43693
L27896 43712
L27915 43731
L27934 43768
L27934 43825
L27915 43862
L27896 43881
L27859 43900
L27709 43900
" />
<path d="M28121 44087
L28196 44087
L28234 44068
L28253 44050
L28290 43993
L28309 43918
L28309 43768
L28290 43731
L28271 43712
L28234 43693
L28159 43693
L28121 43712
L28103 43731
L28084 43768
L28084 43862
L28103 43900
L28121 43918
L28159 43937
L28234 43937
L28271 43918
L28290 43900
L28309 43862
" />
<path d="M47475 38159
L47531 38178
L47625 38178
L47662 38159
L47681 38140
L47700 38103
L47700 38065
L47681 38028
L47662 38009
L47625 37990
L47550 37971
L47512 37953
L47493 37934
L47475 37896
L47475 37859
L47493 37821
L47512 37803
L47550 37784
L47643 37784
L47700 37803
" />
<path d="M47831 37784
L47925 38178
L48000 37896
L48074 38178
L48168 37784
" />
<path d="M48524 38178
L48299 38178
" />
<path d="M48412 38178
L48412 37784
L48374 37840
L48337 37878
L48299 37896
" />
<path d="M41475 38159
L41531 38178
L41625 38178
L41662 38159
L41681 38140
L41700 38103
L41700 38065
L41681 38028
L41662 38009
L41625 37990
L41550 37971
L41512 37953
L41493 37934
L41475 37896
L41475 37859
L41493 37821
L41512 37803
L41550 37784
L41643 37784
L41700 37803
" />
<path d="M41831 37784
L41925 38178
L42000 37896
L42074 38178
L42168 37784
" />
<path d="M42299 37821
L42318 37803
L42356 37784
L42449 37784
L42487 37803
L42506 37821
L42524 37859
L42524 37896
L42506 37953
L42281 38178
L42524 38178
" />
<path d="M35475 38159
L35531 38178
L35625 38178
L35662 38159
L35681 38140
L35700 38103
L35700 38065
L35681 38028
L35662 38009
L35625 37990
L35550 37971
L35512 37953
L35493 37934
L35475 37896
L35475 37859
L35493 37821
L35512 37803
L35550 37784
L35643 37784
L35700 37803
" />
<path d="M35831 37784
L35925 38178
L36000 37896
L36074 38178
L36168 37784
" />
<path d="M36281 37784
L36524 37784
L36393 37934
L36449 37934
L36487 37953
L36506 37971
L36524 38009
L36524 38103
L36506 38140
L36487 38159
L36449 38178
L36337 38178
L36299 38159
L36281 38140
" />
<path d="M29475 38159
L29531 38178
L29625 38178
L29662 38159
L29681 38140
L29700 38103
L29700 38065
L29681 38028
L29662 38009
L29625 37990
L29550 37971
L29512 37953
L29493 37934
L29475 37896
L29475 37859
L29493 37821
L29512 37803
L29550 37784
L29643 37784
L29700 37803
" />
<path d="M29831 37784
L29925 38178
L30000 37896
L30074 38178
L30168 37784
" />
<path d="M30487 37915
L30487 38178
" />
<path d="M30393 37765
L30299 38046
L30543 38046
" />
<path d="M21587 50299
L21906 50299
L21943 50281
L21962 50262
L21981 50224
L21981 50149
L21962 50112
L21943 50093
L21906 50074
L21587 50074
" />
<path d="M21625 49906
L21606 49887
L21587 49850
L21587 49756
L21606 49718
L21625 49700
L21662 49681
L21700 49681
L21756 49700
L21981 49925
L21981 49681
" />
</g> 
</svg>
