G04 #@! TF.FileFunction,Copper,L1,Top,Signal*
%FSLAX46Y46*%
G04 Gerber Fmt 4.6, Leading zero omitted, Abs format (unit mm)*
G04 Created by KiCad (PCBNEW 4.0.6) date Tue Sep 12 11:08:01 2017*
%MOMM*%
%LPD*%
G01*
G04 APERTURE LIST*
%ADD10C,0.100000*%
%ADD11R,1.350000X1.350000*%
%ADD12O,1.350000X1.350000*%
%ADD13C,1.600000*%
%ADD14O,1.600000X1.600000*%
%ADD15R,1.700000X1.700000*%
%ADD16O,1.700000X1.700000*%
%ADD17R,1.524000X1.524000*%
%ADD18C,1.524000*%
%ADD19C,0.400000*%
G04 APERTURE END LIST*
D10*
D11*
X147320000Y-108204000D03*
D12*
X147320000Y-106204000D03*
X147320000Y-104204000D03*
D13*
X90424000Y-107696000D03*
D14*
X90424000Y-97536000D03*
D13*
X100330000Y-107696000D03*
D14*
X100330000Y-97536000D03*
D13*
X110490000Y-107696000D03*
D14*
X110490000Y-97536000D03*
D13*
X120650000Y-107696000D03*
D14*
X120650000Y-97536000D03*
D13*
X125476000Y-107696000D03*
D14*
X125476000Y-97536000D03*
D13*
X85344000Y-97536000D03*
D14*
X85344000Y-107696000D03*
D13*
X95250000Y-97536000D03*
D14*
X95250000Y-107696000D03*
D13*
X105410000Y-97536000D03*
D14*
X105410000Y-107696000D03*
D13*
X115570000Y-97536000D03*
D14*
X115570000Y-107696000D03*
D15*
X92964000Y-112776000D03*
D16*
X90424000Y-112776000D03*
X87884000Y-112776000D03*
X85344000Y-112776000D03*
D15*
X107442000Y-112776000D03*
D16*
X104902000Y-112776000D03*
X102362000Y-112776000D03*
X99822000Y-112776000D03*
D15*
X122428000Y-112776000D03*
D16*
X119888000Y-112776000D03*
X117348000Y-112776000D03*
X114808000Y-112776000D03*
D15*
X137922000Y-112776000D03*
D16*
X135382000Y-112776000D03*
X132842000Y-112776000D03*
X130302000Y-112776000D03*
D17*
X87370000Y-70270000D03*
D18*
X89910000Y-70270000D03*
X92450000Y-70270000D03*
X94990000Y-70270000D03*
X97530000Y-70270000D03*
X100070000Y-70270000D03*
X102610000Y-70270000D03*
X105150000Y-70270000D03*
X107690000Y-70270000D03*
X110230000Y-70270000D03*
X112770000Y-70270000D03*
X115310000Y-70270000D03*
X117850000Y-70270000D03*
X120390000Y-70270000D03*
X122930000Y-70270000D03*
X125470000Y-70270000D03*
X128010000Y-70270000D03*
X130550000Y-70270000D03*
X133090000Y-70270000D03*
X135630000Y-70270000D03*
X135630000Y-93130000D03*
X133090000Y-93130000D03*
X130550000Y-93130000D03*
X128010000Y-93130000D03*
X125470000Y-93130000D03*
X122930000Y-93130000D03*
X120390000Y-93130000D03*
X117850000Y-93130000D03*
X115310000Y-93130000D03*
X112770000Y-93130000D03*
X110230000Y-93130000D03*
X107690000Y-93130000D03*
X105150000Y-93130000D03*
X102610000Y-93130000D03*
X100070000Y-93130000D03*
X97530000Y-93130000D03*
X94990000Y-93130000D03*
X92450000Y-93130000D03*
X89910000Y-93130000D03*
D17*
X87370000Y-93130000D03*
D18*
X130810000Y-107950000D03*
X133350000Y-107950000D03*
X135890000Y-107950000D03*
X138430000Y-107950000D03*
X140970000Y-107950000D03*
X143510000Y-107950000D03*
X143510000Y-97790000D03*
X140970000Y-97790000D03*
X138430000Y-97790000D03*
X135890000Y-97790000D03*
X133350000Y-97790000D03*
X130810000Y-97790000D03*
D19*
X90424000Y-112776000D02*
X90424000Y-107696000D01*
X125470000Y-70270000D02*
X125470000Y-73146000D01*
X95504000Y-102616000D02*
X90424000Y-97536000D01*
X146304000Y-102616000D02*
X95504000Y-102616000D01*
X149352000Y-99568000D02*
X146304000Y-102616000D01*
X149352000Y-79248000D02*
X149352000Y-99568000D01*
X143764000Y-73660000D02*
X149352000Y-79248000D01*
X125984000Y-73660000D02*
X143764000Y-73660000D01*
X125470000Y-73146000D02*
X125984000Y-73660000D01*
X100330000Y-107696000D02*
X100330000Y-108204000D01*
X100330000Y-108204000D02*
X104902000Y-112776000D01*
X122930000Y-70270000D02*
X122930000Y-73146000D01*
X104394000Y-101600000D02*
X100330000Y-97536000D01*
X145796000Y-101600000D02*
X104394000Y-101600000D01*
X148336000Y-99060000D02*
X145796000Y-101600000D01*
X148336000Y-79756000D02*
X148336000Y-99060000D01*
X143256000Y-74676000D02*
X148336000Y-79756000D01*
X124460000Y-74676000D02*
X143256000Y-74676000D01*
X122930000Y-73146000D02*
X124460000Y-74676000D01*
X110490000Y-107696000D02*
X112776000Y-109982000D01*
X117094000Y-109982000D02*
X119888000Y-112776000D01*
X112776000Y-109982000D02*
X117094000Y-109982000D01*
X120390000Y-70270000D02*
X120390000Y-73654000D01*
X113538000Y-100584000D02*
X110490000Y-97536000D01*
X145288000Y-100584000D02*
X113538000Y-100584000D01*
X147320000Y-98552000D02*
X145288000Y-100584000D01*
X147320000Y-80264000D02*
X147320000Y-98552000D01*
X142748000Y-75692000D02*
X147320000Y-80264000D01*
X122428000Y-75692000D02*
X142748000Y-75692000D01*
X120390000Y-73654000D02*
X122428000Y-75692000D01*
X120650000Y-107696000D02*
X122682000Y-109728000D01*
X132334000Y-109728000D02*
X135382000Y-112776000D01*
X122682000Y-109728000D02*
X132334000Y-109728000D01*
X120650000Y-97536000D02*
X120650000Y-97790000D01*
X120650000Y-97790000D02*
X122428000Y-99568000D01*
X122428000Y-99568000D02*
X144780000Y-99568000D01*
X144780000Y-99568000D02*
X146304000Y-98044000D01*
X146304000Y-98044000D02*
X146304000Y-80772000D01*
X146304000Y-80772000D02*
X142240000Y-76708000D01*
X142240000Y-76708000D02*
X120904000Y-76708000D01*
X120904000Y-76708000D02*
X117850000Y-73654000D01*
X117850000Y-73654000D02*
X117850000Y-70270000D01*
X125476000Y-107696000D02*
X127000000Y-106172000D01*
X139192000Y-106172000D02*
X140970000Y-107950000D01*
X127000000Y-106172000D02*
X139192000Y-106172000D01*
X117850000Y-93130000D02*
X117850000Y-93974000D01*
X123444000Y-95504000D02*
X125476000Y-97536000D01*
X119380000Y-95504000D02*
X123444000Y-95504000D01*
X117850000Y-93974000D02*
X119380000Y-95504000D01*
X105150000Y-70270000D02*
X105150000Y-70098000D01*
X105150000Y-70098000D02*
X102616000Y-67564000D01*
X83820000Y-107696000D02*
X85344000Y-107696000D01*
X79756000Y-103632000D02*
X83820000Y-107696000D01*
X79756000Y-70104000D02*
X79756000Y-103632000D01*
X82296000Y-67564000D02*
X79756000Y-70104000D01*
X102616000Y-67564000D02*
X82296000Y-67564000D01*
X105150000Y-70270000D02*
X105068000Y-70270000D01*
X85344000Y-107696000D02*
X85344000Y-112776000D01*
X102610000Y-70270000D02*
X102610000Y-73158000D01*
X93218000Y-105664000D02*
X95250000Y-107696000D01*
X83312000Y-105664000D02*
X93218000Y-105664000D01*
X80772000Y-103124000D02*
X83312000Y-105664000D01*
X80772000Y-79756000D02*
X80772000Y-103124000D01*
X84836000Y-75692000D02*
X80772000Y-79756000D01*
X100076000Y-75692000D02*
X84836000Y-75692000D01*
X102610000Y-73158000D02*
X100076000Y-75692000D01*
X102610000Y-70270000D02*
X102450000Y-70270000D01*
X102610000Y-70270000D02*
X102610000Y-70098000D01*
X95250000Y-107696000D02*
X95250000Y-110744000D01*
X95250000Y-110744000D02*
X97282000Y-112776000D01*
X97282000Y-112776000D02*
X99822000Y-112776000D01*
X107690000Y-70270000D02*
X107690000Y-74174000D01*
X102362000Y-104648000D02*
X105410000Y-107696000D01*
X83820000Y-104648000D02*
X102362000Y-104648000D01*
X81788000Y-102616000D02*
X83820000Y-104648000D01*
X81788000Y-79756000D02*
X81788000Y-102616000D01*
X84836000Y-76708000D02*
X81788000Y-79756000D01*
X105156000Y-76708000D02*
X84836000Y-76708000D01*
X107690000Y-74174000D02*
X105156000Y-76708000D01*
X107690000Y-70270000D02*
X107530000Y-70270000D01*
X105410000Y-107696000D02*
X107950000Y-107696000D01*
X107950000Y-107696000D02*
X113030000Y-112776000D01*
X113030000Y-112776000D02*
X114808000Y-112776000D01*
X82804000Y-98552000D02*
X82804000Y-102108000D01*
X84328000Y-103632000D02*
X87884000Y-103632000D01*
X82804000Y-102108000D02*
X84328000Y-103632000D01*
X112770000Y-93130000D02*
X112770000Y-94482000D01*
X111506000Y-103632000D02*
X115570000Y-107696000D01*
X87884000Y-103632000D02*
X111506000Y-103632000D01*
X82804000Y-96520000D02*
X82804000Y-98552000D01*
X83820000Y-95504000D02*
X82804000Y-96520000D01*
X111748000Y-95504000D02*
X83820000Y-95504000D01*
X112770000Y-94482000D02*
X111748000Y-95504000D01*
X115570000Y-107696000D02*
X117348000Y-107696000D01*
X128270000Y-110744000D02*
X130302000Y-112776000D01*
X120396000Y-110744000D02*
X128270000Y-110744000D01*
X117348000Y-107696000D02*
X120396000Y-110744000D01*
X113284000Y-115316000D02*
X98044000Y-115316000D01*
X95504000Y-112776000D02*
X92964000Y-112776000D01*
X98044000Y-115316000D02*
X95504000Y-112776000D01*
X127508000Y-115316000D02*
X113284000Y-115316000D01*
X110744000Y-112776000D02*
X107442000Y-112776000D01*
X113284000Y-115316000D02*
X110744000Y-112776000D01*
X122428000Y-112776000D02*
X124968000Y-112776000D01*
X135382000Y-115316000D02*
X137922000Y-112776000D01*
X127508000Y-115316000D02*
X135382000Y-115316000D01*
X124968000Y-112776000D02*
X127508000Y-115316000D01*
M02*
