<?xml version="1.0" standalone="no"?>
 <!DOCTYPE svg PUBLIC "-//W3C//DTD SVG 1.1//EN" 
 "http://www.w3.org/Graphics/SVG/1.1/DTD/svg11.dtd"> 
<svg xmlns="http://www.w3.org/2000/svg" version="1.1" 
    width="29.7002cm" height="21.0007cm" viewBox="0 0 116930 82680 ">
<title>SVG Picture created as mastermind-F.SilkS.svg date 2017/09/12 11:07:06 </title>
  <desc>Picture generated by PCBNEW </desc>
<g style="fill:#000000; fill-opacity:1;stroke:#000000; stroke-opacity:1;
stroke-linecap:round; stroke-linejoin:round; "
 transform="translate(0 0) scale(1 1)">
</g>
<g style="fill:#000000; fill-opacity:0.0; 
stroke:#000000; stroke-width:-0.000393701; stroke-opacity:1; 
stroke-linecap:round; stroke-linejoin:round;">
</g>
<g style="fill:#000000; fill-opacity:0.0; 
stroke:#000000; stroke-width:78.7402; stroke-opacity:1; 
stroke-linecap:round; stroke-linejoin:round;">
<path d="M55708 37165
L55708 27165
" />
</g>
<g style="fill:#000000; fill-opacity:0.0; 
stroke:#000000; stroke-width:47.2441; stroke-opacity:1; 
stroke-linecap:round; stroke-linejoin:round;">
<path d="M58440 42206
L58440 40584
" />
<path d="M58440 40584
L57559 40584
" />
<path d="M57559 40584
L57559 42206
" />
<path d="M57559 42206
L58440 42206
" />
<path d="M58440 42600
L58440 43040
" />
<path d="M58440 43040
L58000 43040
" />
<path d="M35084 41663
L36115 41663
" />
<path d="M36115 41663
L36115 39136
" />
<path d="M36115 39136
L35084 39136
" />
<path d="M35084 39136
L35084 41663
" />
<path d="M35600 42014
L35600 41663
" />
<path d="M35600 38785
L35600 39136
" />
<path d="M38984 41663
L40015 41663
" />
<path d="M40015 41663
L40015 39136
" />
<path d="M40015 39136
L38984 39136
" />
<path d="M38984 39136
L38984 41663
" />
<path d="M39500 42014
L39500 41663
" />
<path d="M39500 38785
L39500 39136
" />
<path d="M42984 41663
L44015 41663
" />
<path d="M44015 41663
L44015 39136
" />
<path d="M44015 39136
L42984 39136
" />
<path d="M42984 39136
L42984 41663
" />
<path d="M43500 42014
L43500 41663
" />
<path d="M43500 38785
L43500 39136
" />
<path d="M46984 41663
L48015 41663
" />
<path d="M48015 41663
L48015 39136
" />
<path d="M48015 39136
L46984 39136
" />
<path d="M46984 39136
L46984 41663
" />
<path d="M47500 42014
L47500 41663
" />
<path d="M47500 38785
L47500 39136
" />
<path d="M48884 41663
L49915 41663
" />
<path d="M49915 41663
L49915 39136
" />
<path d="M49915 39136
L48884 39136
" />
<path d="M48884 39136
L48884 41663
" />
<path d="M49400 42014
L49400 41663
" />
<path d="M49400 38785
L49400 39136
" />
<path d="M34115 39136
L33084 39136
" />
<path d="M33084 39136
L33084 41663
" />
<path d="M33084 41663
L34115 41663
" />
<path d="M34115 41663
L34115 39136
" />
<path d="M33600 38785
L33600 39136
" />
<path d="M33600 42014
L33600 41663
" />
<path d="M38015 39136
L36984 39136
" />
<path d="M36984 39136
L36984 41663
" />
<path d="M36984 41663
L38015 41663
" />
<path d="M38015 41663
L38015 39136
" />
<path d="M37500 38785
L37500 39136
" />
<path d="M37500 42014
L37500 41663
" />
<path d="M42015 39136
L40984 39136
" />
<path d="M40984 39136
L40984 41663
" />
<path d="M40984 41663
L42015 41663
" />
<path d="M42015 41663
L42015 39136
" />
<path d="M41500 38785
L41500 39136
" />
<path d="M41500 42014
L41500 41663
" />
<path d="M46015 39136
L44984 39136
" />
<path d="M44984 39136
L44984 41663
" />
<path d="M44984 41663
L46015 41663
" />
<path d="M46015 41663
L46015 39136
" />
<path d="M45500 38785
L45500 39136
" />
<path d="M45500 42014
L45500 41663
" />
<path d="M36100 43852
L33052 43852
" />
<path d="M33052 43852
L33052 44947
" />
<path d="M33052 44947
L36100 44947
" />
<path d="M36100 44947
L36100 43852
" />
<path d="M36600 43852
L37147 43852
" />
<path d="M37147 43852
L37147 44400
" />
<path d="M41800 43852
L38752 43852
" />
<path d="M38752 43852
L38752 44947
" />
<path d="M38752 44947
L41800 44947
" />
<path d="M41800 44947
L41800 43852
" />
<path d="M42300 43852
L42847 43852
" />
<path d="M42847 43852
L42847 44400
" />
<path d="M47700 43852
L44652 43852
" />
<path d="M44652 43852
L44652 44947
" />
<path d="M44652 44947
L47700 44947
" />
<path d="M47700 44947
L47700 43852
" />
<path d="M48200 43852
L48747 43852
" />
<path d="M48747 43852
L48747 44400
" />
<path d="M53800 43852
L50752 43852
" />
<path d="M50752 43852
L50752 44947
" />
<path d="M50752 44947
L53800 44947
" />
<path d="M53800 44947
L53800 43852
" />
<path d="M54300 43852
L54847 43852
" />
<path d="M54847 43852
L54847 44400
" />
</g>
<g style="fill:#000000; fill-opacity:0.0; 
stroke:#000000; stroke-width:59.0551; stroke-opacity:1; 
stroke-linecap:round; stroke-linejoin:round;">
<path d="M33897 37165
L56897 37165
" />
<path d="M56897 37165
L56897 27165
" />
<path d="M56897 27165
L33897 27165
" />
<path d="M33897 27165
L33897 37165
" />
<path d="M51000 43000
L51000 38000
" />
<path d="M51000 38000
L57000 38000
" />
<path d="M57000 38000
L57000 43000
" />
<path d="M57000 43000
L51000 43000
" />
<path d="M57868 43219
L57868 43500
L57850 43556
L57812 43594
L57756 43612
L57718 43612
" />
<path d="M58262 43612
L58037 43612
" />
<path d="M58149 43612
L58149 43219
L58112 43275
L58074 43312
L58037 43331
" />
<path d="M34868 40465
L34681 40596
" />
<path d="M34868 40690
L34474 40690
L34474 40540
L34493 40503
L34512 40484
L34549 40465
L34606 40465
L34643 40484
L34662 40503
L34681 40540
L34681 40690
" />
<path d="M34868 40090
L34868 40315
" />
<path d="M34868 40203
L34474 40203
L34531 40240
L34568 40278
L34587 40315
" />
<path d="M38768 40465
L38581 40596
" />
<path d="M38768 40690
L38374 40690
L38374 40540
L38393 40503
L38412 40484
L38449 40465
L38506 40465
L38543 40484
L38562 40503
L38581 40540
L38581 40690
" />
<path d="M38412 40315
L38393 40296
L38374 40259
L38374 40165
L38393 40128
L38412 40109
L38449 40090
L38487 40090
L38543 40109
L38768 40334
L38768 40090
" />
<path d="M42768 40465
L42581 40596
" />
<path d="M42768 40690
L42374 40690
L42374 40540
L42393 40503
L42412 40484
L42449 40465
L42506 40465
L42543 40484
L42562 40503
L42581 40540
L42581 40690
" />
<path d="M42374 40334
L42374 40090
L42524 40221
L42524 40165
L42543 40128
L42562 40109
L42599 40090
L42693 40090
L42731 40109
L42749 40128
L42768 40165
L42768 40278
L42749 40315
L42731 40334
" />
<path d="M46768 40465
L46581 40596
" />
<path d="M46768 40690
L46374 40690
L46374 40540
L46393 40503
L46412 40484
L46449 40465
L46506 40465
L46543 40484
L46562 40503
L46581 40540
L46581 40690
" />
<path d="M46506 40128
L46768 40128
" />
<path d="M46356 40221
L46637 40315
L46637 40071
" />
<path d="M48668 40465
L48481 40596
" />
<path d="M48668 40690
L48274 40690
L48274 40540
L48293 40503
L48312 40484
L48349 40465
L48406 40465
L48443 40484
L48462 40503
L48481 40540
L48481 40690
" />
<path d="M48274 40109
L48274 40296
L48462 40315
L48443 40296
L48424 40259
L48424 40165
L48443 40128
L48462 40109
L48499 40090
L48593 40090
L48631 40109
L48649 40128
L48668 40165
L48668 40259
L48649 40296
L48631 40315
" />
<path d="M32778 40465
L32590 40596
" />
<path d="M32778 40690
L32384 40690
L32384 40540
L32403 40503
L32421 40484
L32459 40465
L32515 40465
L32553 40484
L32571 40503
L32590 40540
L32590 40690
" />
<path d="M32384 40128
L32384 40203
L32403 40240
L32421 40259
L32478 40296
L32553 40315
L32703 40315
L32740 40296
L32759 40278
L32778 40240
L32778 40165
L32759 40128
L32740 40109
L32703 40090
L32609 40090
L32571 40109
L32553 40128
L32534 40165
L32534 40240
L32553 40278
L32571 40296
L32609 40315
" />
<path d="M36778 40565
L36590 40696
" />
<path d="M36778 40790
L36384 40790
L36384 40640
L36403 40603
L36421 40584
L36459 40565
L36515 40565
L36553 40584
L36571 40603
L36590 40640
L36590 40790
" />
<path d="M36384 40434
L36384 40171
L36778 40340
" />
<path d="M40678 40465
L40490 40596
" />
<path d="M40678 40690
L40284 40690
L40284 40540
L40303 40503
L40321 40484
L40359 40465
L40415 40465
L40453 40484
L40471 40503
L40490 40540
L40490 40690
" />
<path d="M40453 40240
L40434 40278
L40415 40296
L40378 40315
L40359 40315
L40321 40296
L40303 40278
L40284 40240
L40284 40165
L40303 40128
L40321 40109
L40359 40090
L40378 40090
L40415 40109
L40434 40128
L40453 40165
L40453 40240
L40471 40278
L40490 40296
L40528 40315
L40603 40315
L40640 40296
L40659 40278
L40678 40240
L40678 40165
L40659 40128
L40640 40109
L40603 40090
L40528 40090
L40490 40109
L40471 40128
L40453 40165
" />
<path d="M44678 40465
L44490 40596
" />
<path d="M44678 40690
L44284 40690
L44284 40540
L44303 40503
L44321 40484
L44359 40465
L44415 40465
L44453 40484
L44471 40503
L44490 40540
L44490 40690
" />
<path d="M44678 40278
L44678 40203
L44659 40165
L44640 40146
L44584 40109
L44509 40090
L44359 40090
L44321 40109
L44303 40128
L44284 40165
L44284 40240
L44303 40278
L44321 40296
L44359 40315
L44453 40315
L44490 40296
L44509 40278
L44528 40240
L44528 40165
L44509 40128
L44490 40109
L44453 40090
" />
<path d="M37700 44924
L37719 44868
L37719 44774
L37700 44737
L37681 44718
L37644 44699
L37606 44699
L37569 44718
L37550 44737
L37531 44774
L37512 44849
L37494 44887
L37475 44906
L37437 44924
L37400 44924
L37362 44906
L37344 44887
L37325 44849
L37325 44756
L37344 44699
" />
<path d="M37325 44568
L37719 44474
L37437 44399
L37719 44325
L37325 44231
" />
<path d="M37719 43875
L37719 44100
" />
<path d="M37719 43987
L37325 43987
L37381 44025
L37419 44062
L37437 44100
" />
<path d="M43400 44924
L43419 44868
L43419 44774
L43400 44737
L43381 44718
L43344 44699
L43306 44699
L43269 44718
L43250 44737
L43231 44774
L43212 44849
L43194 44887
L43175 44906
L43137 44924
L43100 44924
L43062 44906
L43044 44887
L43025 44849
L43025 44756
L43044 44699
" />
<path d="M43025 44568
L43419 44474
L43137 44399
L43419 44325
L43025 44231
" />
<path d="M43062 44100
L43044 44081
L43025 44043
L43025 43950
L43044 43912
L43062 43893
L43100 43875
L43137 43875
L43194 43893
L43419 44118
L43419 43875
" />
<path d="M49300 44924
L49319 44868
L49319 44774
L49300 44737
L49281 44718
L49244 44699
L49206 44699
L49169 44718
L49150 44737
L49131 44774
L49112 44849
L49094 44887
L49075 44906
L49037 44924
L49000 44924
L48962 44906
L48944 44887
L48925 44849
L48925 44756
L48944 44699
" />
<path d="M48925 44568
L49319 44474
L49037 44399
L49319 44325
L48925 44231
" />
<path d="M48925 44118
L48925 43875
L49075 44006
L49075 43950
L49094 43912
L49112 43893
L49150 43875
L49244 43875
L49281 43893
L49300 43912
L49319 43950
L49319 44062
L49300 44100
L49281 44118
" />
<path d="M55400 44924
L55419 44868
L55419 44774
L55400 44737
L55381 44718
L55344 44699
L55306 44699
L55269 44718
L55250 44737
L55231 44774
L55212 44849
L55194 44887
L55175 44906
L55137 44924
L55100 44924
L55062 44906
L55044 44887
L55025 44849
L55025 44756
L55044 44699
" />
<path d="M55025 44568
L55419 44474
L55137 44399
L55419 44325
L55025 44231
" />
<path d="M55156 43912
L55419 43912
" />
<path d="M55006 44006
L55287 44100
L55287 43856
" />
<path d="M42682 32465
L43000 32465
L43038 32446
L43056 32427
L43075 32390
L43075 32315
L43056 32277
L43038 32259
L43000 32240
L42682 32240
" />
<path d="M43075 31846
L43075 32071
" />
<path d="M43075 31959
L42682 31959
L42738 31996
L42775 32034
L42794 32071
" />
<path d="M53981 40799
L54299 40799
L54337 40781
L54356 40762
L54374 40724
L54374 40649
L54356 40612
L54337 40593
L54299 40574
L53981 40574
" />
<path d="M54018 40406
L54000 40387
L53981 40350
L53981 40256
L54000 40218
L54018 40200
L54056 40181
L54093 40181
L54149 40200
L54374 40425
L54374 40181
" />
</g> 
</svg>
